<svg width="42" height="42" viewBox="0 0 42 42" fill="none" xmlns="http://www.w3.org/2000/svg">
  <g filter="url(#filter0_d)">
    <path d="M29.1924 10.8076C29.9702 11.5854 29.9702 12.8582 29.1924 13.636L13.636 29.1924C12.8582 29.9702 11.5854 29.9702 10.8076 29.1924C10.0298 28.4146 10.0298 27.1418 10.8076 26.364L26.364 10.8076C27.1418 10.0298 28.4146 10.0298 29.1924 10.8076Z" fill="white"/>
    <path d="M29.1924 29.1924C28.4146 29.9702 27.1418 29.9702 26.364 29.1924L10.8076 13.636C10.0298 12.8582 10.0298 11.5854 10.8076 10.8076C11.5854 10.0298 12.8582 10.0298 13.636 10.8076L29.1924 26.364C29.9702 27.1418 29.9702 28.4146 29.1924 29.1924Z" fill="white"/>
  </g>
  <defs>
    <filter id="filter0_d" x="0.615234" y="0.615234" width="40.7696" height="40.7696" filterUnits="userSpaceOnUse" color-interpolation-filters="sRGB">
      <feFlood flood-opacity="0" result="BackgroundImageFix"/>
      <feColorMatrix in="SourceAlpha" type="matrix" values="0 0 0 0 0 0 0 0 0 0 0 0 0 0 0 0 0 0 127 0"/>
      <feOffset dx="1" dy="1"/>
      <feGaussianBlur stdDeviation="1"/>
      <feColorMatrix type="matrix" values="0 0 0 0 0.35 0 0 0 0 0.385 0 0 0 0 0.4375 0 0 0 0.5 0"/>
      <feBlend mode="normal" in2="BackgroundImageFix" result="effect1_dropShadow"/>
      <feBlend mode="normal" in="SourceGraphic" in2="effect1_dropShadow" result="shape"/>
    </filter>
  </defs>
</svg>
