<svg width="11" height="11" viewBox="0 0 11 11" fill="none" xmlns="http://www.w3.org/2000/svg">
  <path d="M7.37724 5.56626L10.6048 2.31928C11.1317 1.78916 11.1317 0.927711 10.6048 0.463855C10.0778 -0.0662651 9.22156 -0.0662651 8.76048 0.463855L5.53293 3.64458L2.23952 0.39759C1.71257 -0.13253 0.856287 -0.13253 0.39521 0.39759C-0.131737 0.927711 -0.131737 1.78916 0.39521 2.25301L3.62275 5.5L0.39521 8.74699C-0.131737 9.27711 -0.131737 10.1386 0.39521 10.6024C0.922156 11.0663 1.77844 11.1325 2.23952 10.6024L5.46707 7.35542L8.69461 10.6024C9.22156 11.1325 10.0778 11.1325 10.5389 10.6024C11 10.0723 11.0659 9.21084 10.5389 8.74699L7.37724 5.56626Z" fill="#F27E6E"/>
</svg>
