<svg width="133" height="183" viewBox="0 0 133 183" fill="none" xmlns="http://www.w3.org/2000/svg">
  <path opacity="0.3" d="M126.179 46.3216H95.4872V30.1248C95.4872 29.8407 95.4872 29.5565 95.4872 29.2724C95.4872 13.0756 81.8462 -0.279702 65.3633 0.0044522C48.8803 0.288607 35.8077 13.6439 36.0919 30.1248V46.3216H6.82051C3.12607 46.3216 0 49.4473 0 53.1414V176.18C0 179.874 3.12607 183 6.82051 183H126.179C129.874 183 133 179.874 133 176.18V53.1414C133 49.4473 129.874 46.3216 126.179 46.3216ZM49.7329 30.1248C49.7329 29.8407 49.7329 29.8407 49.7329 29.5565C50.0171 20.7477 57.1218 13.6439 66.2158 13.6439C75.0256 13.928 82.1303 21.0319 82.1303 30.1248V46.3216H49.7329V30.1248ZM119.359 169.361H13.641V59.9611H35.8077V71.0431C35.8077 74.7371 38.9338 77.8628 42.6282 77.8628C46.3227 77.8628 49.4487 74.7371 49.4487 71.0431V59.9611H81.8462V71.0431C81.8462 74.7371 84.9722 77.8628 88.6667 77.8628C92.3611 77.8628 95.4872 74.7371 95.4872 71.0431V59.9611H119.359V169.361ZM68.4893 94.0596V118.497C68.4893 120.77 66.7842 122.475 64.5107 122.475H56.2692V150.891C56.2692 153.164 54.5641 154.869 52.2906 154.869C50.0171 154.869 48.312 153.164 48.312 150.891V122.475H39.7863C37.5128 122.475 35.8077 120.77 35.8077 118.497V94.0596C35.8077 91.7864 37.5128 90.0815 39.7863 90.0815C42.0598 90.0815 43.765 91.7864 43.765 94.0596V114.519H47.7436V94.0596C47.7436 91.7864 49.4487 90.0815 51.7222 90.0815C53.9957 90.0815 55.7009 91.7864 55.7009 94.0596V114.519H59.6795V94.0596C59.6795 91.7864 61.3846 90.0815 63.6581 90.0815C65.9316 90.0815 68.4893 91.7864 68.4893 94.0596ZM86.3932 90.0815H94.6346V90.9339V151.459C94.6346 153.732 92.9295 155.437 90.656 155.437C88.3825 155.437 86.6774 153.732 86.6774 151.459V121.907C81.8462 120.202 78.4359 115.655 78.4359 110.541V102.3C78.1517 92.6388 86.3932 90.0815 86.3932 90.0815Z" fill="#596270"/>
</svg>
