<svg width="24" height="24" viewBox="0 0 24 24" fill="none" xmlns="http://www.w3.org/2000/svg">
  <g filter="url(#filter0_d)">
    <path d="M21 11C21 12.1 20.1 13 19 13H3C1.9 13 1 12.1 1 11C1 9.9 1.9 9 3 9H19C20.1 9 21 9.9 21 11ZM3 5H19C20.1 5 21 4.1 21 3C21 1.9 20.1 1 19 1H3C1.9 1 1 1.9 1 3C1 4.1 1.9 5 3 5ZM19 17H3C1.9 17 1 17.9 1 19C1 20.1 1.9 21 3 21H19C20.1 21 21 20.1 21 19C21 17.9 20.1 17 19 17Z" fill="white"/>
  </g>
  <defs>
    <filter id="filter0_d" x="0" y="0" width="24" height="24" filterUnits="userSpaceOnUse" color-interpolation-filters="sRGB">
      <feFlood flood-opacity="0" result="BackgroundImageFix"/>
      <feColorMatrix in="SourceAlpha" type="matrix" values="0 0 0 0 0 0 0 0 0 0 0 0 0 0 0 0 0 0 127 0"/>
      <feOffset dx="1" dy="1"/>
      <feGaussianBlur stdDeviation="1"/>
      <feColorMatrix type="matrix" values="0 0 0 0 0.35 0 0 0 0 0.385 0 0 0 0 0.4375 0 0 0 0.5 0"/>
      <feBlend mode="normal" in2="BackgroundImageFix" result="effect1_dropShadow"/>
      <feBlend mode="normal" in="SourceGraphic" in2="effect1_dropShadow" result="shape"/>
    </filter>
  </defs>
</svg>
