<svg width="179" height="168" viewBox="0 0 179 168" fill="none" xmlns="http://www.w3.org/2000/svg">
  <path opacity="0.3" d="M178.624 105.571C177.35 99.4804 171.744 94.151 163.845 91.3595C160.022 90.0906 155.691 89.3293 151.104 89.0755C150.594 87.8066 149.83 85.7764 148.046 81.9698C143.205 70.8036 135.051 51.0091 128.171 32.7372C131.738 32.2296 134.541 30.9607 136.325 29.1843C139.892 25.6314 139.892 21.0634 139.892 17.2568V16.4955V15.7341C139.892 11.9275 139.892 7.35952 136.325 3.80665C133.777 1.26888 129.7 0 124.094 0C111.353 0 101.415 5.58308 99.3769 13.4502C93.0066 16.2417 82.5593 20.8097 81.2852 21.3172C75.1697 24.3625 73.6409 29.6918 75.1697 33.4985C76.9534 38.8278 83.0689 41.6193 89.4392 40.0967C92.497 39.3353 95.8096 37.3051 98.6125 35.2749C102.435 51.0091 102.435 74.864 93.771 87.2991C89.9489 92.8822 84.5978 95.4199 77.7179 95.1662C72.3668 94.9124 68.2898 92.8822 67.0157 89.8369C65.7417 86.284 67.7802 81.716 72.3668 77.148C72.8764 76.6405 73.1312 76.1329 73.386 75.6254C82.5593 72.58 82.5593 68.7734 82.5593 66.7432C82.5593 59.3837 76.9534 51.0091 69.5639 51.0091L13.5051 48.9788C5.86069 48.9788 0.254813 57.3535 0.254813 64.713C0.254813 68.5196 2.54813 71.8187 7.13475 74.1027C3.82219 79.432 0 89.3293 0 102.526C0 109.631 3.05775 115.468 9.17325 120.29C6.62513 124.858 5.35107 130.187 5.35107 135.517C5.35107 153.027 19.6206 167.239 37.2026 167.239C54.7847 167.239 69.0542 153.027 69.0542 135.517C69.0542 135.263 69.0542 135.009 69.0542 134.755C72.6216 134.755 76.4438 135.009 80.5208 135.009C91.2229 135.009 92.2422 135.009 95.5547 134.248C95.8096 134.248 96.3192 133.994 96.8288 133.994C97.0836 135.263 97.0836 136.785 97.3384 138.054C100.141 150.743 106.767 153.535 111.863 153.535C113.137 153.535 114.156 153.281 115.175 153.281C116.195 153.027 116.959 152.773 117.723 152.52C123.329 161.909 133.777 168 145.243 168C162.825 168 177.095 153.788 177.095 136.278C177.095 130.187 175.311 124.35 171.999 119.275C176.84 116.737 180.153 112.931 178.624 105.571ZM124.094 10.6586C127.916 10.6586 128.68 11.4199 128.68 11.4199C128.935 11.9275 128.935 14.2115 128.935 15.7341V16.7492V17.7643C128.935 19.287 128.935 21.571 128.68 22.0785C128.68 22.0785 127.916 22.8399 124.094 22.8399C115.175 22.8399 109.824 19.0332 109.824 17.003C109.569 14.2115 115.175 10.6586 124.094 10.6586ZM13.2503 59.3837L68.7994 61.4139C69.309 61.6677 70.5831 63.1903 71.0927 64.713C67.2705 66.2356 56.3136 68.2659 36.693 68.2659C19.3658 68.2659 12.4858 65.2205 10.7021 63.6979C11.2118 61.9214 12.4858 59.6375 13.2503 59.3837ZM58.3521 135.263C58.3521 146.937 48.924 156.326 37.2026 156.326C25.4813 156.326 16.0532 146.937 16.0532 135.263C16.0532 131.964 16.8176 128.665 18.3465 125.619C22.6783 127.65 28.0294 129.172 33.8901 130.441C33.6353 130.695 33.3805 131.202 32.8708 131.456C30.8323 133.74 30.8323 137.039 33.1256 139.069C34.1449 140.085 35.419 140.592 36.9478 140.592C38.4767 140.592 39.7508 140.085 41.0248 138.816C42.8085 136.785 44.5922 134.755 46.3759 132.471C49.9433 132.979 54.0203 133.233 58.0973 133.74C58.3521 134.248 58.3521 134.755 58.3521 135.263ZM94.0259 123.335C91.4777 123.843 90.9681 123.843 80.7756 123.843C36.9478 123.843 10.9569 115.722 10.9569 102.272C10.9569 89.8369 15.2888 80.9547 17.3273 77.148C22.6783 78.1631 29.3035 78.9245 36.9478 78.9245C45.6115 78.9245 52.4914 78.6707 58.0973 78.1631C55.5492 83.4924 55.0395 88.8217 56.8232 93.6435C59.6262 100.749 67.2705 105.317 77.2082 105.825C77.7179 105.825 78.2275 105.825 78.7371 105.825C88.6748 105.825 96.8288 101.511 102.689 93.3897C114.411 76.8943 113.646 47.2024 108.295 29.4381C110.843 30.7069 113.646 31.722 116.704 32.2296C123.839 52.0242 133.012 74.1027 138.108 86.284C138.618 87.5529 139.128 88.568 139.383 89.5831C137.089 89.8369 134.541 90.3444 131.993 90.852C114.156 94.6586 100.906 107.601 97.5932 122.828C96.0644 123.082 94.7903 123.082 94.0259 123.335ZM108.041 135.517C104.473 118.767 118.998 104.556 134.286 101.257C139.637 100.242 143.969 99.7341 147.791 99.7341C153.142 99.7341 157.219 100.495 160.022 101.511C164.864 103.287 167.667 105.825 167.922 107.855C168.176 108.363 168.176 108.87 168.176 108.87C167.157 109.378 164.354 110.393 162.316 111.154C156.2 112.931 147.027 115.976 136.07 123.335C124.603 131.202 120.017 136.278 117.214 139.577C114.921 142.115 114.921 142.115 113.392 142.622C111.863 142.876 109.824 143.13 108.041 135.517ZM145.498 157.088C137.344 157.088 130.209 152.52 126.642 145.414C128.935 143.13 131.993 139.831 138.108 135.263C138.873 136.532 139.637 137.801 141.421 139.831C142.44 140.846 143.969 141.607 145.243 141.607C146.517 141.607 147.791 141.1 149.065 140.085C151.359 138.054 151.359 134.755 149.32 132.471C148.046 131.202 147.791 130.695 147.282 129.934C147.282 129.68 147.027 129.426 147.027 129.172C152.633 125.873 157.474 124.097 161.551 122.574C164.609 126.381 166.393 130.949 166.393 136.024C166.393 147.444 156.965 157.088 145.498 157.088Z" fill="#596270"/>
</svg>
