<svg width="16" height="16" viewBox="0 0 16 16" fill="none" xmlns="http://www.w3.org/2000/svg">
  <path d="M9.28056 9.15244L13.8587 9.1387C14.6062 9.13645 15.2153 8.52732 15.1707 7.82671C15.173 7.07925 14.5675 6.47377 13.8666 6.52259L9.33527 6.48948L9.30244 1.86472C9.30469 1.11726 8.6992 0.511774 7.99832 0.560594C7.25086 0.562839 6.64172 1.17197 6.68634 1.87258L6.67259 6.45076L2.0944 6.46451C1.34694 6.46675 0.737808 7.07589 0.78242 7.77649C0.827032 8.47709 1.38566 9.12944 2.08654 9.08062L6.66473 9.06687L6.65098 13.6451C6.64874 14.3925 7.25422 14.998 7.95511 14.9492C8.65599 14.9004 9.3117 14.3378 9.26709 13.6372L9.28056 9.15244Z" fill="#27AE60"/>
</svg>
