<svg width="30" height="30" viewBox="0 0 30 30" fill="none" xmlns="http://www.w3.org/2000/svg">
  <g filter="url(#filter0_d)">
    <path d="M27 14C27 15.1 26.1 16 25 16H3C1.9 16 1 15.1 1 14C1 12.9 1.9 12 3 12H25C26.1 12 27 12.9 27 14Z" fill="white"/>
    <path d="M14 27C12.9 27 12 26.1 12 25L12 3C12 1.9 12.9 1 14 1C15.1 1 16 1.9 16 3L16 25C16 26.1 15.1 27 14 27Z" fill="white"/>
  </g>
  <defs>
    <filter id="filter0_d" x="0" y="0" width="30" height="30" filterUnits="userSpaceOnUse" color-interpolation-filters="sRGB">
      <feFlood flood-opacity="0" result="BackgroundImageFix"/>
      <feColorMatrix in="SourceAlpha" type="matrix" values="0 0 0 0 0 0 0 0 0 0 0 0 0 0 0 0 0 0 127 0"/>
      <feOffset dx="1" dy="1"/>
      <feGaussianBlur stdDeviation="1"/>
      <feColorMatrix type="matrix" values="0 0 0 0 0.35 0 0 0 0 0.385 0 0 0 0 0.4375 0 0 0 0.5 0"/>
      <feBlend mode="normal" in2="BackgroundImageFix" result="effect1_dropShadow"/>
      <feBlend mode="normal" in="SourceGraphic" in2="effect1_dropShadow" result="shape"/>
    </filter>
  </defs>
</svg>
