<svg width="26" height="26" viewBox="0 0 26 26" fill="none" xmlns="http://www.w3.org/2000/svg">
  <g filter="url(#filter0_d)">
    <path d="M22.4 19.6L17.6 14.8C18.5 13.4 19 11.8 19 10C19 5 15 1 10 1C5 1 1 5 1 10C1 15 5 19 10 19C11.8 19 13.4 18.5 14.8 17.6L19.6 22.4C20 22.8 20.5 23 21 23C22.1 23 23 22.1 23 21C23 20.4 22.8 19.9 22.4 19.6ZM5 10C5 7.2 7.2 5 10 5C12.8 5 15 7.2 15 10C15 12.8 12.8 15 10 15C7.2 15 5 12.8 5 10Z" fill="#F27E6E"/>
  </g>
  <defs>
    <filter id="filter0_d" x="0" y="0" width="26" height="26" filterUnits="userSpaceOnUse" color-interpolation-filters="sRGB">
      <feFlood flood-opacity="0" result="BackgroundImageFix"/>
      <feColorMatrix in="SourceAlpha" type="matrix" values="0 0 0 0 0 0 0 0 0 0 0 0 0 0 0 0 0 0 127 0"/>
      <feOffset dx="1" dy="1"/>
      <feGaussianBlur stdDeviation="1"/>
      <feColorMatrix type="matrix" values="0 0 0 0 0.178281 0 0 0 0 0.211969 0 0 0 0 0.2625 0 0 0 0.5 0"/>
      <feBlend mode="normal" in2="BackgroundImageFix" result="effect1_dropShadow"/>
      <feBlend mode="normal" in="SourceGraphic" in2="effect1_dropShadow" result="shape"/>
    </filter>
  </defs>
</svg>
