<svg width="26" height="28" viewBox="0 0 26 28" fill="none" xmlns="http://www.w3.org/2000/svg">
  <g filter="url(#filter0_d)">
    <path d="M19.8947 10.0667C19.8947 9 19.0105 8.04 17.7947 8.04H16.6947V6.12C16.6947 4.73333 16.1421 3.45333 15.0368 2.49333C13.9316 1.53333 12.7158 1 11.3895 1C8.40526 1 6.08421 3.34667 6.08421 6.22667V8.14667H5.20526C3.98947 8.04 3.10526 9 3.10526 9.96L1 22.9733C1 24.04 1.88421 25 3.1 25H20.0105C21.1158 25 22.1105 24.1467 22.1105 22.9733L19.8947 10.0667ZM13.3789 5.69333V8.04H9.51053V5.58667C9.51053 4.73333 10.5053 4.09333 11.5 4.09333C12.4947 4.2 13.3789 4.84 13.3789 5.69333ZM6.08421 12.0933H16.8053L17.6895 21.0533H5.2L6.08421 12.0933Z" fill="white"/>
  </g>
  <defs>
    <filter id="filter0_d" x="0" y="0" width="25.1105" height="28" filterUnits="userSpaceOnUse" color-interpolation-filters="sRGB">
      <feFlood flood-opacity="0" result="BackgroundImageFix"/>
      <feColorMatrix in="SourceAlpha" type="matrix" values="0 0 0 0 0 0 0 0 0 0 0 0 0 0 0 0 0 0 127 0"/>
      <feOffset dx="1" dy="1"/>
      <feGaussianBlur stdDeviation="1"/>
      <feColorMatrix type="matrix" values="0 0 0 0 0.35 0 0 0 0 0.385 0 0 0 0 0.4375 0 0 0 0.5 0"/>
      <feBlend mode="normal" in2="BackgroundImageFix" result="effect1_dropShadow"/>
      <feBlend mode="normal" in="SourceGraphic" in2="effect1_dropShadow" result="shape"/>
    </filter>
  </defs>
</svg>
