<svg width="159" height="180" viewBox="0 0 159 180" fill="none" xmlns="http://www.w3.org/2000/svg">
  <g opacity="0.2">
    <path d="M158.211 163.226L153.034 41.9355C153.034 32.9032 145.593 25.8065 136.533 25.8065H109.033C106.768 11.2903 94.1498 0 79.267 0C64.0607 0 51.7662 11.2903 49.5015 25.4839H22.0006C12.9416 25.4839 5.50016 32.9032 5.50016 41.6129L0 163.226V163.548C0 172.581 7.44139 180 16.5005 180H141.71C150.769 180 158.211 172.581 158.211 163.226C158.211 163.548 158.211 163.226 158.211 163.226ZM79.267 13.871C86.7084 13.871 92.8557 18.7097 94.7969 25.4839H63.7372C65.6784 19.0323 71.8256 13.871 79.267 13.871ZM141.71 165.806H16.5005C15.2063 165.806 13.9122 164.839 13.9122 163.548L19.4123 42.2581V41.9355C19.4123 40.6452 20.383 39.6774 22.0006 39.6774H48.8544V65.1613C48.8544 69.0323 52.0898 72.2581 55.9722 72.2581C59.8547 72.2581 63.0901 69.0323 63.0901 65.1613V39.6774H95.444V65.1613C95.444 69.0323 98.6794 72.2581 102.562 72.2581C106.444 72.2581 109.68 69.0323 109.68 65.1613V39.6774H136.857C138.151 39.6774 139.445 40.6452 139.445 41.9355V42.2581L144.945 163.548C144.298 164.839 143.004 165.806 141.71 165.806Z" fill="#2D3643"/>
    <path d="M55.6484 104.194C59.8544 104.194 63.0898 100.968 63.0898 96.7742C63.0898 92.5807 59.8544 89.3549 55.6484 89.3549C51.4424 89.3549 48.207 92.5807 48.207 96.7742C48.207 100.968 51.4424 104.194 55.6484 104.194Z" fill="#2D3643"/>
    <path d="M102.238 104.194C106.444 104.194 109.679 100.968 109.679 96.7742C109.679 92.5807 106.444 89.3549 102.238 89.3549C98.0318 89.3549 94.7964 92.5807 94.7964 96.7742C94.7964 100.968 98.0318 104.194 102.238 104.194Z" fill="#2D3643"/>
    <path d="M77.326 117.742C63.4139 120 47.2369 125.484 42.7074 135.161C41.0897 138.71 42.7074 142.581 45.9428 144.194C46.9134 144.516 47.884 144.839 48.8546 144.839C51.4429 144.839 54.0312 143.548 55.0019 140.968C55.9725 138.71 64.3845 133.548 79.2673 131.29C93.8265 129.032 103.533 131.29 105.15 132.903C107.739 135.806 111.945 135.806 114.857 133.226C117.768 130.645 117.768 126.452 115.18 123.548C108.386 116.129 91.2382 115.807 77.326 117.742Z" fill="#2D3643"/>
  </g>
</svg>
