<svg width="24" height="26" viewBox="0 0 24 26" fill="none" xmlns="http://www.w3.org/2000/svg">
  <g opacity="0.5">
    <path d="M22.0658 16.3507C21.8323 16.1137 21.2486 15.7583 21.1318 15.7583C21.1318 15.8768 21.1318 15.9953 21.1318 15.9953C21.4821 17.5355 21.1318 18.128 20.8983 18.7204C20.7816 18.8389 20.7816 19.0758 20.6648 19.1943H20.7816C20.8983 19.1943 20.8983 19.3128 20.8983 19.4313C20.8983 19.5498 20.7816 19.5498 20.6648 19.5498C20.5481 19.4313 20.3146 19.5498 20.1978 19.5498C20.1978 19.5498 19.9643 19.6682 19.4973 19.6682C19.3806 19.6682 19.1471 19.6682 18.9136 19.5498C17.746 19.1943 15.9948 17.891 15.411 16.4692C14.8273 14.9289 14.1268 10.9005 11.3247 8.5308C8.9897 6.51658 7.47193 7.109 6.53792 7.34597C5.95417 7.58293 5.72067 7.70142 5.60391 8.17535C6.65468 8.05687 8.40594 9.2417 7.93894 10.9005C6.53792 9.00474 4.6699 9.12322 3.9694 9.36019C2.80188 9.9526 1.98463 10.6635 1.75112 12.3223C1.28412 14.6919 2.10138 15.8768 4.08615 18.3649C6.07092 20.8531 12.8425 24.1706 13.543 24.4076C14.8273 24.8815 15.878 25.1185 17.0455 25.1185C18.4466 25.1185 19.7308 24.6445 20.7816 23.8152C21.8323 22.9858 22.5328 21.9194 22.8831 20.4976C23.3501 18.7204 22.9999 17.4171 22.0658 16.3507Z" fill="#F27E6E"/>
    <path d="M1.98476 8.05687C1.98476 8.05687 1.63451 9.12322 1.75126 9.95261C2.10151 9.36019 2.56852 9.00474 2.68527 8.88626C3.03552 8.53081 3.73603 8.17536 4.43654 8.17536C4.55329 7.70142 4.78679 7.34597 5.13704 7.109C4.43654 6.63507 3.38577 6.87204 3.38577 6.87204H3.26902C2.56852 5.92417 1.75126 4.85782 1.75126 3.90995C1.75126 3.5545 1.86801 3.31754 2.10151 3.08057C2.80202 2.48815 3.38577 2.8436 3.85278 3.19905C3.96953 3.43602 4.20303 3.5545 4.31979 3.5545C4.43654 3.5545 4.90354 3.19905 5.13704 2.48815C5.37055 2.1327 5.4873 1.30332 5.02029 0.592417C4.78679 0.35545 4.08628 0 3.15227 0C2.45176 0 1.51775 0.236967 0.817247 1.18483C-0.467017 2.96209 -0.116763 5.45024 1.98476 7.81991C1.98476 7.93839 1.98476 7.93839 1.98476 8.05687Z" fill="#F27E6E"/>
  </g>
</svg>
